<svg width="15" height="15" viewBox="0 0 15 15" fill="none" xmlns="http://www.w3.org/2000/svg">
<g id="instagram">
<path id="Vector" d="M7.56763 4.13086C5.70435 4.13086 4.20142 5.63379 4.20142 7.49707C4.20142 9.36035 5.70435 10.8633 7.56763 10.8633C9.43091 10.8633 10.9338 9.36035 10.9338 7.49707C10.9338 5.63379 9.43091 4.13086 7.56763 4.13086ZM7.56763 9.68555C6.36353 9.68555 5.37915 8.7041 5.37915 7.49707C5.37915 6.29004 6.3606 5.30859 7.56763 5.30859C8.77466 5.30859 9.7561 6.29004 9.7561 7.49707C9.7561 8.7041 8.77173 9.68555 7.56763 9.68555ZM11.8567 3.99316C11.8567 4.42969 11.5051 4.77832 11.0715 4.77832C10.635 4.77832 10.2864 4.42676 10.2864 3.99316C10.2864 3.55957 10.6379 3.20801 11.0715 3.20801C11.5051 3.20801 11.8567 3.55957 11.8567 3.99316ZM14.0862 4.79004C14.0364 3.73828 13.7961 2.80664 13.0256 2.03906C12.2581 1.27148 11.3264 1.03125 10.2747 0.978516C9.19067 0.916992 5.94165 0.916992 4.85767 0.978516C3.80884 1.02832 2.8772 1.26855 2.10669 2.03613C1.33618 2.80371 1.09888 3.73535 1.04614 4.78711C0.984619 5.87109 0.984619 9.12012 1.04614 10.2041C1.09595 11.2559 1.33618 12.1875 2.10669 12.9551C2.8772 13.7227 3.80591 13.9629 4.85767 14.0156C5.94165 14.0771 9.19067 14.0771 10.2747 14.0156C11.3264 13.9658 12.2581 13.7256 13.0256 12.9551C13.7932 12.1875 14.0334 11.2559 14.0862 10.2041C14.1477 9.12012 14.1477 5.87402 14.0862 4.79004ZM12.6858 11.3672C12.4573 11.9414 12.0149 12.3838 11.4377 12.6152C10.5735 12.958 8.52271 12.8789 7.56763 12.8789C6.61255 12.8789 4.55884 12.9551 3.69751 12.6152C3.12329 12.3867 2.68091 11.9443 2.44946 11.3672C2.10669 10.5029 2.18579 8.45215 2.18579 7.49707C2.18579 6.54199 2.10962 4.48828 2.44946 3.62695C2.67798 3.05273 3.12036 2.61035 3.69751 2.37891C4.56177 2.03613 6.61255 2.11523 7.56763 2.11523C8.52271 2.11523 10.5764 2.03906 11.4377 2.37891C12.012 2.60742 12.4543 3.0498 12.6858 3.62695C13.0286 4.49121 12.9495 6.54199 12.9495 7.49707C12.9495 8.45215 13.0286 10.5059 12.6858 11.3672Z" fill="white"/>
</g>
</svg>
